<?xml version="1.0" encoding="UTF-8" standalone="no"?>
<!-- Uploaded to: SVG Repo, www.svgrepo.com, Generator: SVG Repo Mixer Tools -->

<svg
   fill="#000000"
   height="410"
   width="600"
   version="1.1"
   id="Icons"
   viewBox="0 0 24 16.4"
   xml:space="preserve"
   sodipodi:docname="creadit-card-debit-svgrepo-green.svg"
   inkscape:version="1.4 (e7c3feb1, 2024-10-09)"
   xmlns:inkscape="http://www.inkscape.org/namespaces/inkscape"
   xmlns:sodipodi="http://sodipodi.sourceforge.net/DTD/sodipodi-0.dtd"
   xmlns="http://www.w3.org/2000/svg"
   xmlns:svg="http://www.w3.org/2000/svg"><defs
   id="defs2" /><sodipodi:namedview
   id="namedview2"
   pagecolor="#ffffff"
   bordercolor="#000000"
   borderopacity="0.25"
   inkscape:showpageshadow="2"
   inkscape:pageopacity="0.0"
   inkscape:pagecheckerboard="0"
   inkscape:deskcolor="#d1d1d1"
   inkscape:zoom="0.295"
   inkscape:cx="398.30508"
   inkscape:cy="401.69492"
   inkscape:window-width="1312"
   inkscape:window-height="702"
   inkscape:window-x="0"
   inkscape:window-y="25"
   inkscape:window-maximized="0"
   inkscape:current-layer="Icons" />
<path
   d="M 23.861765,3.5892596 V 2.7480464 c 0,-1.4300624 -1.093576,-2.52363964 -2.523639,-2.52363964 H 2.8314363 c -1.4300625,0 -2.52363965,1.09357724 -2.52363965,2.52363964 v 0.8412132 z"
   id="path1"
   style="fill:#8abe7a;fill-opacity:1;stroke-width:0.841213" />
<path
   d="m 0.30779665,5.271686 v 8.412131 c 0,1.430063 1.09357715,2.52364 2.52363965,2.52364 H 21.338126 c 1.430063,0 2.523639,-1.093577 2.523639,-2.52364 V 5.271686 Z M 6.1962891,12.842604 H 4.5138627 c -0.5047279,0 -0.8412132,-0.336485 -0.8412132,-0.841213 0,-0.504728 0.3364853,-0.841213 0.8412132,-0.841213 h 1.6824264 c 0.5047279,0 0.8412132,0.336485 0.8412132,0.841213 0,0.504728 -0.3364853,0.841213 -0.8412132,0.841213 z m 2.5236392,-2.52364 H 4.5138627 c -0.5047279,0 -0.8412132,-0.336485 -0.8412132,-0.8412126 0,-0.504728 0.3364853,-0.841213 0.8412132,-0.841213 h 4.2060656 c 0.504728,0 0.841213,0.336485 0.841213,0.841213 0,0.5047276 -0.336485,0.8412126 -0.841213,0.8412126 z m 9.2533447,2.52364 c -0.67297,0 -1.26182,-0.252364 -1.682426,-0.672971 -0.420607,0.420607 -1.009456,0.672971 -1.682427,0.672971 -1.430062,0 -2.523639,-1.093577 -2.523639,-2.52364 0,-1.4300616 1.093577,-2.5236385 2.523639,-2.5236385 0.672971,0 1.26182,0.2523641 1.682427,0.6729709 0.420606,-0.4206068 1.009456,-0.6729709 1.682426,-0.6729709 1.430062,0 2.52364,1.0935769 2.52364,2.5236385 0,1.430063 -1.093578,2.52364 -2.52364,2.52364 z"
   id="path2"
   style="fill:#8abe7a;fill-opacity:1;stroke-width:0.841213" />
</svg>
